<svg width="243" height="69" viewBox="0 0 243 69" fill="none" xmlns="http://www.w3.org/2000/svg">
<rect x="1.5" y="1.5" width="69.1333" height="65" rx="9.5" fill="#8B8B8B" stroke="black" stroke-width="3"/>
<path opacity="0.022" d="M49.9306 22.766C50.7735 21.0785 48.9323 18.6349 45.8182 17.308C42.7042 15.981 39.4964 16.2733 38.6535 17.9608C37.8107 19.6482 39.6519 22.0918 42.7659 23.4188C45.88 24.7457 49.0878 24.4534 49.9306 22.766Z" fill="black"/>
<path opacity="0.239" d="M51.5185 42.7562C53.382 43.1465 55.5513 40.8853 56.3638 37.7056C57.1763 34.526 56.3243 31.6319 54.4608 31.2415C52.5973 30.8511 50.428 33.1123 49.6155 36.292C48.803 39.4717 49.655 42.3658 51.5185 42.7562Z" fill="black"/>
<path opacity="0.261" d="M50.0728 44.4477C51.8558 45.0714 54.3286 43.1001 55.5959 40.0446C56.8632 36.9891 56.4452 34.0064 54.6623 33.3827C52.8793 32.759 50.4065 34.7303 49.1392 37.7858C47.8718 40.8413 48.2898 43.824 50.0728 44.4477Z" fill="black"/>
<path opacity="0.283" d="M48.4125 45.9269C50.0905 46.7789 52.8207 45.1448 54.5106 42.277C56.2004 39.4092 56.21 36.3936 54.5321 35.5416C52.8541 34.6895 50.1239 36.3236 48.434 39.1914C46.7442 42.0592 46.7346 45.0748 48.4125 45.9269Z" fill="black"/>
<path opacity="0.304" d="M46.5633 47.1671C48.1108 48.2376 51.0475 46.981 53.1226 44.3603C55.1977 41.7396 55.6254 38.7472 54.0778 37.6767C52.5303 36.6061 49.5936 37.8628 47.5185 40.4835C45.4434 43.1042 45.0157 46.0966 46.5633 47.1671Z" fill="black"/>
<path opacity="0.326" d="M44.5543 48.1489C45.9451 49.4221 49.0337 48.5731 51.4528 46.2525C53.8719 43.932 54.7055 41.0186 53.3147 39.7453C51.9239 38.4721 48.8354 39.3211 46.4163 41.6416C43.9972 43.9622 43.1635 46.8756 44.5543 48.1489Z" fill="black"/>
<path opacity="0.348" d="M42.4171 48.8586C43.6245 50.3123 46.8073 49.889 49.5262 47.9132C52.2451 45.9374 53.4705 43.1573 52.2631 41.7036C51.0558 40.2499 47.8729 40.6732 45.154 42.6489C42.4351 44.6247 41.2098 47.4049 42.4171 48.8586Z" fill="black"/>
<path opacity="0.37" d="M40.1856 49.2893C41.1832 50.8944 44.401 50.9018 47.3729 49.3057C50.3447 47.7096 51.9452 45.1145 50.9476 43.5093C49.95 41.9042 46.7322 41.8968 43.7603 43.4929C40.7885 45.089 39.188 47.6841 40.1856 49.2893Z" fill="black"/>
<path opacity="0.391" d="M37.897 49.4386C38.6601 51.1601 41.8531 51.5896 45.0286 50.3977C48.2041 49.2059 50.1596 46.8442 49.3965 45.1226C48.6333 43.4011 45.4403 42.9716 42.2648 44.1635C39.0893 45.3553 37.1338 47.717 37.897 49.4386Z" fill="black"/>
<path opacity="0.413" d="M35.5931 49.3091C36.1004 51.1071 39.2089 51.9377 42.5361 51.1644C45.8633 50.3912 48.1492 48.3068 47.6419 46.5088C47.1345 44.7108 44.026 43.8802 40.6988 44.6535C37.3716 45.4268 35.0857 47.5112 35.5931 49.3091Z" fill="black"/>
<path opacity="0.435" d="M33.316 48.9064C33.5511 50.7374 36.5173 51.9378 39.9412 51.5875C43.365 51.2373 45.95 49.4691 45.7149 47.6381C45.4797 45.8072 42.5135 44.6068 39.0896 44.957C35.6658 45.3072 33.0808 47.0754 33.316 48.9064Z" fill="black"/>
<path opacity="0.457" d="M31.1214 48.24C31.0748 50.0678 33.8387 51.605 37.2949 51.6735C40.751 51.742 43.5905 50.3158 43.6371 48.488C43.6837 46.6602 40.9198 45.1229 37.4636 45.0545C34.0075 44.986 31.168 46.4122 31.1214 48.24Z" fill="black"/>
<path opacity="0.478" d="M29.0976 47.2963C28.7714 49.1214 31.2619 50.9976 34.6603 51.4869C38.0586 51.9763 41.0779 50.8935 41.404 49.0685C41.7302 47.2434 39.2397 45.3672 35.8413 44.8779C32.443 44.3885 29.4237 45.4713 29.0976 47.2963Z" fill="black"/>
<path opacity="0.5" d="M27.2244 46.0796C26.6308 47.8571 28.8111 50.0373 32.0943 50.9493C35.3775 51.8613 38.5203 51.1596 39.1139 49.3822C39.7076 47.6047 37.5272 45.4245 34.2441 44.5125C30.9609 43.6005 27.8181 44.3022 27.2244 46.0796Z" fill="black"/>
<path opacity="0.522" d="M25.5322 44.6155C24.6894 46.303 26.5306 48.7466 29.6447 50.0735C32.7587 51.4004 35.9665 51.1082 36.8094 49.4207C37.6522 47.7333 35.811 45.2896 32.697 43.9627C29.5829 42.6358 26.3751 42.9281 25.5322 44.6155Z" fill="black"/>
<path opacity="0.543" d="M24.0561 42.9345C22.9867 44.4934 24.4657 47.1549 27.3597 48.8792C30.2536 50.6034 33.4666 50.7374 34.536 49.1785C35.6054 47.6196 34.1264 44.9581 31.2325 43.2338C28.3385 41.5096 25.1256 41.3755 24.0561 42.9345Z" fill="black"/>
<path opacity="0.565" d="M22.8239 41.074C21.5533 42.4712 22.6514 45.3011 25.2767 47.3947C27.902 49.4882 31.0603 50.0528 32.331 48.6556C33.6017 47.2584 32.5035 44.4285 29.8782 42.3349C27.2529 40.2414 24.0946 39.6768 22.8239 41.074Z" fill="black"/>
<path opacity="0.587" d="M21.8646 39.0746C20.4192 40.2833 21.1207 43.2288 23.4314 45.6535C25.7421 48.0782 28.7869 49.0639 30.2322 47.8553C31.6775 46.6466 30.976 43.7011 28.6654 41.2764C26.3547 38.8517 23.3099 37.8659 21.8646 39.0746Z" fill="black"/>
<path opacity="0.609" d="M21.2013 36.9793C19.608 37.9794 19.8993 40.9856 21.852 43.6938C23.8047 46.402 26.6793 47.7868 28.2727 46.7867C29.866 45.7866 29.5747 42.7804 27.622 40.0722C25.6693 37.364 22.7947 35.9792 21.2013 36.9793Z" fill="black"/>
<path opacity="0.63" d="M20.8526 34.8317C19.1373 35.6094 19.0072 38.6203 20.5619 41.5567C22.1166 44.4931 24.7675 46.243 26.4828 45.4653C28.1981 44.6875 28.3282 41.6766 26.7735 38.7402C25.2188 35.8038 22.5679 34.0539 20.8526 34.8317Z" fill="black"/>
<path opacity="0.652" d="M20.8312 32.6742C19.019 33.2215 18.4587 36.1811 19.5797 39.2846C20.7007 42.3881 23.0784 44.4603 24.8905 43.913C26.7027 43.3657 27.263 40.4062 26.142 37.3026C25.021 34.1991 22.6433 32.1269 20.8312 32.6742Z" fill="black"/>
<path opacity="0.674" d="M21.141 30.5475C19.2562 30.8606 18.2606 33.7137 18.9173 36.92C19.5741 40.1263 21.6344 42.4717 23.5192 42.1586C25.404 41.8455 26.3995 38.9924 25.7428 35.7861C25.0861 32.5798 23.0258 30.2344 21.141 30.5475Z" fill="black"/>
<path opacity="0.696" d="M21.7821 28.489C19.8476 28.5674 18.4159 31.2609 18.5841 34.505C18.7523 37.7491 20.4568 40.3153 22.3912 40.2369C24.3256 40.1585 25.7574 37.465 25.5892 34.2209C25.421 30.9768 23.7165 28.4106 21.7821 28.489Z" fill="black"/>
<path opacity="0.717" d="M22.7346 26.4956C20.8141 26.34 18.9886 28.8395 18.6574 32.0783C18.3261 35.3171 19.6145 38.0688 21.5351 38.2244C23.4556 38.3799 25.2811 35.8804 25.6123 32.6416C25.9436 29.4028 24.6552 26.6512 22.7346 26.4956Z" fill="black"/>
<path opacity="0.739" d="M23.9444 24.6249C22.0809 24.2346 19.9115 26.4958 19.0991 29.6755C18.2866 32.8551 19.1386 35.7492 21.0021 36.1396C22.8656 36.53 25.0349 34.2688 25.8474 31.0891C26.6599 27.9094 25.8079 25.0153 23.9444 24.6249Z" fill="black"/>
<path opacity="0.761" d="M25.3911 22.9335C23.6081 22.3097 21.1353 24.2811 19.868 27.3366C18.6006 30.3921 19.0186 33.3747 20.8016 33.9984C22.5846 34.6222 25.0574 32.6508 26.3247 29.5953C27.5921 26.5398 27.174 23.5572 25.3911 22.9335Z" fill="black"/>
<path opacity="0.783" d="M27.0513 21.4543C25.3733 20.6022 22.6432 22.2363 20.9533 25.1042C19.2635 27.972 19.2538 30.9875 20.9318 31.8396C22.6098 32.6917 25.34 31.0576 27.0298 28.1898C28.7197 25.3219 28.7293 22.3064 27.0513 21.4543Z" fill="black"/>
<path opacity="0.804" d="M28.8996 20.214C27.3521 19.1435 24.4154 20.4001 22.3403 23.0208C20.2652 25.6415 19.8375 28.6339 21.3851 29.7044C22.9326 30.775 25.8693 29.5183 27.9444 26.8976C30.0195 24.2769 30.4472 21.2845 28.8996 20.214Z" fill="black"/>
<path opacity="0.826" d="M30.9086 19.2323C29.5178 17.959 26.4292 18.808 24.0101 21.1286C21.591 23.4492 20.7573 26.3626 22.1481 27.6358C23.5389 28.9091 26.6275 28.0601 29.0466 25.7395C31.4657 23.4189 32.2994 20.5056 30.9086 19.2323Z" fill="black"/>
<path opacity="0.848" d="M33.0468 18.5226C31.8394 17.0689 28.6566 17.4921 25.9377 19.4679C23.2188 21.4437 21.9934 24.2239 23.2007 25.6776C24.4081 27.1313 27.5909 26.708 30.3098 24.7322C33.0287 22.7564 34.2541 19.9763 33.0468 18.5226Z" fill="black"/>
<path opacity="0.87" d="M35.2773 18.092C34.2797 16.4868 31.0618 16.4795 28.09 18.0755C25.1181 19.6716 23.5177 22.2668 24.5153 23.8719C25.5129 25.4771 28.7307 25.4844 31.7026 23.8883C34.6744 22.2922 36.2749 19.6971 35.2773 18.092Z" fill="black"/>
<path opacity="0.891" d="M37.5659 17.9425C36.8028 16.221 33.6098 15.7915 30.4343 16.9834C27.2588 18.1752 25.3033 20.5369 26.0664 22.2585C26.8296 23.9801 30.0225 24.4095 33.198 23.2177C36.3735 22.0258 38.3291 19.6641 37.5659 17.9425Z" fill="black"/>
<path opacity="0.913" d="M39.8708 18.0721C39.3635 16.2742 36.2549 15.4435 32.9277 16.2168C29.6005 16.9901 27.3146 19.0745 27.822 20.8724C28.3293 22.6704 31.4379 23.501 34.7651 22.7278C38.0923 21.9545 40.3782 19.8701 39.8708 18.0721Z" fill="black"/>
<path opacity="0.935" d="M42.1479 18.4748C41.9127 16.6438 38.9465 15.4434 35.5227 15.7936C32.0988 16.1438 29.5139 17.912 29.749 19.743C29.9842 21.574 32.9504 22.7744 36.3742 22.4242C39.7981 22.074 42.383 20.3058 42.1479 18.4748Z" fill="black"/>
<path opacity="0.957" d="M44.3415 19.1412C44.3881 17.3134 41.6242 15.7761 38.168 15.7077C34.7119 15.6392 31.8724 17.0654 31.8258 18.8932C31.7792 20.721 34.5431 22.2582 37.9992 22.3267C41.4554 22.3952 44.2949 20.969 44.3415 19.1412Z" fill="black"/>
<path opacity="0.978" d="M46.3653 20.0848C46.6915 18.2597 44.201 16.3835 40.8026 15.8942C37.4043 15.4048 34.385 16.4876 34.0589 18.3127C33.7327 20.1377 36.2232 22.0139 39.6215 22.5032C43.0199 22.9926 46.0392 21.9098 46.3653 20.0848Z" fill="black"/>
<path d="M48.2394 21.3016C48.8331 19.5241 46.6527 17.3439 43.3696 16.4319C40.0864 15.52 36.9436 16.2216 36.3499 17.9991C35.7563 19.7765 37.9366 21.9567 41.2198 22.8687C44.503 23.7807 47.6458 23.0791 48.2394 21.3016Z" fill="black"/>
<g filter="url(#filter0_d_332_264)">
<path d="M78.213 52V20.431H97.542V25.633H84.486V33.283H95.91V38.485H84.486V52H78.213ZM124.317 50.98C124.215 51.048 123.977 51.167 123.603 51.337C123.263 51.507 122.804 51.694 122.226 51.898C121.648 52.068 120.934 52.221 120.084 52.357C119.268 52.493 118.333 52.561 117.279 52.561C114.389 52.561 112.281 51.711 110.955 50.011C109.629 48.277 108.966 45.761 108.966 42.463V22.114H102.336V16.912H115.239V42.922C115.239 44.554 115.562 45.659 116.208 46.237C116.854 46.815 117.67 47.104 118.656 47.104C119.914 47.104 120.968 46.934 121.818 46.594C122.668 46.254 123.229 46.033 123.501 45.931L124.317 50.98ZM127.581 40.219C127.581 38.111 127.904 36.258 128.55 34.66C129.196 33.062 130.046 31.736 131.1 30.682C132.154 29.594 133.361 28.778 134.721 28.234C136.081 27.69 137.475 27.418 138.903 27.418C142.439 27.418 145.125 28.472 146.961 30.58C148.797 32.654 149.715 35.697 149.715 39.709C149.715 40.117 149.698 40.542 149.664 40.984C149.664 41.426 149.647 41.783 149.613 42.055H134.058C134.058 43.619 134.704 44.86 135.996 45.778C137.288 46.662 138.954 47.104 140.994 47.104C142.252 47.104 143.442 46.968 144.564 46.696C145.72 46.424 146.689 46.152 147.471 45.88L148.338 51.235C147.25 51.609 146.094 51.915 144.87 52.153C143.646 52.425 142.269 52.561 140.739 52.561C138.699 52.561 136.863 52.306 135.231 51.796C133.633 51.252 132.256 50.47 131.1 49.45C129.978 48.396 129.111 47.104 128.499 45.574C127.887 44.044 127.581 42.259 127.581 40.219ZM143.646 37.72C143.646 37.074 143.561 36.462 143.391 35.884C143.221 35.272 142.949 34.728 142.575 34.252C142.201 33.776 141.725 33.402 141.147 33.13C140.569 32.824 139.855 32.671 139.005 32.671C138.189 32.671 137.475 32.807 136.863 33.079C136.285 33.351 135.792 33.725 135.384 34.201C135.01 34.677 134.704 35.221 134.466 35.833C134.262 36.445 134.126 37.074 134.058 37.72H143.646ZM164.454 35.527L169.35 28.03H175.725L167.973 39.556C168.789 40.542 169.588 41.596 170.37 42.718C171.152 43.806 171.9 44.911 172.614 46.033C173.328 47.155 173.974 48.226 174.552 49.246C175.13 50.266 175.623 51.184 176.031 52H169.503C168.585 50.266 167.667 48.719 166.749 47.359C165.831 45.999 164.964 44.775 164.148 43.687C163.128 45.047 162.21 46.373 161.394 47.665C160.578 48.957 159.745 50.402 158.895 52H152.52C153.03 51.048 153.608 50.062 154.254 49.042C154.934 47.988 155.631 46.934 156.345 45.88C157.093 44.792 157.858 43.721 158.64 42.667C159.456 41.613 160.238 40.61 160.986 39.658L152.571 28.03H159.15L164.454 35.527ZM201.072 28.03C200.426 30.274 199.797 32.484 199.185 34.66C198.607 36.802 197.995 38.91 197.349 40.984C196.703 43.024 196.006 45.03 195.258 47.002C194.544 48.974 193.762 50.895 192.912 52.765C192.266 54.125 191.62 55.298 190.974 56.284C190.362 57.27 189.665 58.069 188.883 58.681C188.135 59.327 187.285 59.803 186.333 60.109C185.415 60.415 184.327 60.568 183.069 60.568C182.015 60.568 181.046 60.483 180.162 60.313C179.312 60.143 178.598 59.922 178.02 59.65L179.193 54.397C179.873 54.703 180.468 54.907 180.978 55.009C181.522 55.145 182.1 55.213 182.712 55.213C183.936 55.213 184.922 54.805 185.67 53.989C186.418 53.173 187.013 52.204 187.455 51.082C185.959 48.09 184.463 44.673 182.967 40.831C181.471 36.955 180.111 32.688 178.887 28.03H185.415C185.721 29.288 186.061 30.631 186.435 32.059C186.843 33.487 187.268 34.915 187.71 36.343C188.152 37.771 188.611 39.182 189.087 40.576C189.597 41.936 190.107 43.211 190.617 44.401C190.957 43.211 191.314 41.936 191.688 40.576C192.062 39.182 192.419 37.788 192.759 36.394C193.099 34.966 193.422 33.538 193.728 32.11C194.068 30.682 194.374 29.322 194.646 28.03H201.072Z" fill="black"/>
</g>
<path d="M206.376 39.976C208.264 39.976 209.728 40.368 210.768 41.152C211.808 41.92 212.328 43.184 212.328 44.944C212.328 46.72 211.8 48.008 210.744 48.808C209.704 49.592 208.224 49.984 206.304 49.984H205.248V55H202.296V40.336C202.584 40.272 202.904 40.216 203.256 40.168C203.624 40.12 203.992 40.088 204.36 40.072C204.728 40.04 205.088 40.016 205.44 40C205.792 39.984 206.104 39.976 206.376 39.976ZM206.712 42.544C206.536 42.544 206.288 42.552 205.968 42.568C205.664 42.568 205.424 42.584 205.248 42.616V47.416H206.448C207.392 47.416 208.104 47.232 208.584 46.864C209.064 46.48 209.304 45.832 209.304 44.92C209.304 44.056 209.064 43.448 208.584 43.096C208.12 42.728 207.496 42.544 206.712 42.544ZM216.648 47.56C216.648 48.28 216.672 48.96 216.72 49.6C216.784 50.224 216.896 50.768 217.056 51.232C217.232 51.696 217.472 52.064 217.776 52.336C218.08 52.608 218.488 52.744 219 52.744C219.496 52.744 219.896 52.608 220.2 52.336C220.52 52.064 220.76 51.696 220.92 51.232C221.096 50.752 221.208 50.2 221.256 49.576C221.32 48.952 221.352 48.28 221.352 47.56C221.352 46.84 221.32 46.168 221.256 45.544C221.208 44.904 221.096 44.352 220.92 43.888C220.76 43.424 220.528 43.056 220.224 42.784C219.92 42.512 219.512 42.376 219 42.376C218.488 42.376 218.08 42.512 217.776 42.784C217.472 43.056 217.232 43.432 217.056 43.912C216.896 44.376 216.784 44.92 216.72 45.544C216.672 46.168 216.648 46.84 216.648 47.56ZM213.648 47.56C213.648 45 214.12 43.072 215.064 41.776C216.008 40.464 217.32 39.808 219 39.808C220.744 39.808 222.072 40.464 222.984 41.776C223.896 43.072 224.352 45 224.352 47.56C224.352 50.12 223.888 52.056 222.96 53.368C222.032 54.664 220.72 55.312 219.024 55.312C217.28 55.312 215.944 54.664 215.016 53.368C214.104 52.056 213.648 50.12 213.648 47.56ZM230.568 52.84C231.064 52.84 231.472 52.792 231.792 52.696C232.128 52.584 232.392 52.44 232.584 52.264C232.776 52.072 232.904 51.864 232.968 51.64C233.048 51.4 233.088 51.16 233.088 50.92C233.088 50.616 233 50.344 232.824 50.104C232.648 49.864 232.424 49.656 232.152 49.48C231.88 49.288 231.576 49.12 231.24 48.976C230.904 48.816 230.568 48.672 230.232 48.544C229.784 48.384 229.32 48.2 228.84 47.992C228.36 47.784 227.92 47.52 227.52 47.2C227.136 46.88 226.816 46.488 226.56 46.024C226.304 45.544 226.176 44.952 226.176 44.248C226.176 42.856 226.624 41.768 227.52 40.984C228.432 40.2 229.68 39.808 231.264 39.808C232.176 39.808 232.968 39.912 233.64 40.12C234.328 40.328 234.904 40.56 235.368 40.816L234.504 43.096C234.104 42.872 233.656 42.68 233.16 42.52C232.68 42.36 232.12 42.28 231.48 42.28C229.912 42.28 229.128 42.848 229.128 43.984C229.128 44.272 229.208 44.528 229.368 44.752C229.528 44.96 229.728 45.152 229.968 45.328C230.224 45.488 230.504 45.632 230.808 45.76C231.128 45.888 231.44 46.008 231.744 46.12C232.208 46.296 232.688 46.496 233.184 46.72C233.696 46.928 234.16 47.216 234.576 47.584C235.008 47.936 235.36 48.384 235.632 48.928C235.904 49.456 236.04 50.128 236.04 50.944C236.04 52.336 235.584 53.416 234.672 54.184C233.776 54.936 232.408 55.312 230.568 55.312C229.336 55.312 228.352 55.184 227.616 54.928C226.88 54.656 226.328 54.408 225.96 54.184L226.824 51.784C227.256 52.04 227.768 52.28 228.36 52.504C228.968 52.728 229.704 52.84 230.568 52.84Z" fill="black"/>
<defs>
<filter id="filter0_d_332_264" x="74.2129" y="16.912" width="130.859" height="51.656" filterUnits="userSpaceOnUse" color-interpolation-filters="sRGB">
<feFlood flood-opacity="0" result="BackgroundImageFix"/>
<feColorMatrix in="SourceAlpha" type="matrix" values="0 0 0 0 0 0 0 0 0 0 0 0 0 0 0 0 0 0 127 0" result="hardAlpha"/>
<feOffset dy="4"/>
<feGaussianBlur stdDeviation="2"/>
<feComposite in2="hardAlpha" operator="out"/>
<feColorMatrix type="matrix" values="0 0 0 0 0 0 0 0 0 0 0 0 0 0 0 0 0 0 0.25 0"/>
<feBlend mode="normal" in2="BackgroundImageFix" result="effect1_dropShadow_332_264"/>
<feBlend mode="normal" in="SourceGraphic" in2="effect1_dropShadow_332_264" result="shape"/>
</filter>
</defs>
</svg>
